Angel Heart 1987 DVD
   
      Complete name : Angel Heart 1987 DVDRip_Minstrel.avi
      Format : AVI
      Format/Info : Audio Video Interleave
      File size : 720 MiB
      Duration : 1h 53mn
      Bit Rate : 751 Kbps 
      Overall bit rate : 891 Kbps
      Writing application : MEncoder SVN-r29352(20090610-gcc4.3.3)
      Writing library : MPlayer
   Video #0
      ID : 0
      Format : MPEG-4 Visual
      Format profile : AdvancedSimple@L5
      Format settings, BVOP : Yes
      Format settings, QPel : No
      Format settings, GMC : No warppoints
      Format settings, Matrix : Default (H.264)
      Codec ID : XVID
      Codec ID/Hint : XviD
   Resolution
      Width : 640 pixels
      Height : 480 pixels
      Display aspect ratio : 4:3
      Frame rate : 25.000 fps
      Resolution : 24 bits
      Colorimetry : 4:2:0
      Scan type : Progressive
      Bits/(Pixel*Frame) : 0.098
      Stream size : 607 MiB (84%)
      Writing library : XviD 1.2.1 (UTC 2008-12-04)
   Audio #1
      ID : 1
      Format : MPEG Audio
      Format version : Version 1
      Format profile : Layer 3
      Codec ID : 55
      Codec ID/Hint : MP3
      Duration : 1h 53mn
      Bit rate mode : Constant
      Bit rate : 128 Kbps
      Channel(s) : 2 channels (Stereo)
      Sampling rate : 44.1 KHz
      Resolution : 16 bits
      Video delay : 80ms
      Stream size : 103 MiB (14%)
      Alignment : Aligned on interleaves
      Interleave, duration : 26 ms (0.65 video frame)
      Interleave, preload duration : 522 ms
      Writing library : LAME3.98

PLOT SUMMARY:
Mickey Rourke plays Harry Angel, a seedy private investigator in New York City. Louis Cyphre (De Niro) hires Angel to locate Johnny Favorite, a popular big band crooner who was severely injured in World War II and hospitalized with profound neurological trauma. Cyphre discovers that the hospital may have falsified Favorite's records and wants Angel to find out what happened, as Favorite owed a debt to Cyphre.But there's more to the case than initially appears, as the debt in question is Favorite's soul. 

Movie Details: 

Directed by Alan Parker 
Produced by Elliott Kastner
Alan Marshall 
Written by Novel:
William Hjortsberg
Screenplay:
Alan Parker 
Starring Mickey Rourke
Robert De Niro
Lisa Bonet
Charlotte Rampling 
